<svg xmlns="http://www.w3.org/2000/svg" width="80" height="80" viewBox="0 0 80 80"><g transform="translate(-3641 -576)"><text transform="translate(3672 622)" fill="#fff" font-size="2" font-family="SegoeUI, Segoe UI"><tspan x="-6.907" y="0">Join the League</tspan></text><g transform="translate(-89 -4)"><g transform="translate(3724 59)"><g transform="translate(-1767 -12)"><g transform="translate(1773 533)"><rect width="80" height="80" rx="16" fill="#f90021"/></g></g><path d="M23.251,26.572A13.286,13.286,0,1,0,9.965,13.286,13.285,13.285,0,0,0,23.251,26.572Zm9.3,3.322H30.818a18.069,18.069,0,0,1-15.134,0H13.95A13.954,13.954,0,0,0,0,43.844v4.318a4.984,4.984,0,0,0,4.982,4.982H41.519A4.984,4.984,0,0,0,46.5,48.162V43.844A13.954,13.954,0,0,0,32.551,29.894Z" transform="translate(23 534)" fill="#fff"/></g></g></g></svg>