<svg xmlns="http://www.w3.org/2000/svg" xmlns:xlink="http://www.w3.org/1999/xlink" width="34.471" height="34.44" viewBox="0 0 34.471 34.44"><defs><clipPath id="a"><rect width="34.471" height="34.44" fill="#fff"/></clipPath></defs><g transform="translate(-2833 -10988)"><g transform="translate(2833 10988)"><g clip-path="url(#a)"><path d="M18.184,34.44H16.232c-.109-.02-.217-.043-.327-.06-.894-.145-1.806-.223-2.681-.446a17.137,17.137,0,0,1-10.1-7.01,16.326,16.326,0,0,1-2.809-12.8A16.977,16.977,0,0,1,7.356,3.181,16.423,16.423,0,0,1,19.413.156a17.134,17.134,0,0,1,8.959,4A16.387,16.387,0,0,1,34.221,14.22c.107.637.168,1.282.25,1.924V18.3a2.855,2.855,0,0,0-.058.326,14.914,14.914,0,0,1-.663,3.69c-2.116,6.485-6.7,10.225-13.213,11.779-.768.183-1.568.236-2.353.349M31.367,17.215A14.23,14.23,0,0,0,17.275,3.1,14.434,14.434,0,0,0,3.115,17.216,14.438,14.438,0,0,0,17.293,31.275a14.228,14.228,0,0,0,14.074-14.06" transform="translate(0 0)" fill="#fff"/><path d="M90.075,138.985l2.095,1.062a4.916,4.916,0,0,1-1.489,1.733,5.28,5.28,0,0,1-7.141-.9,5.966,5.966,0,0,1-.917-4.684,4.782,4.782,0,0,1,2.246-3.429c1.739-1.12,5.47-1.124,7.058,1.42.07.113.137.228.217.361l-2.3,1.2a2.432,2.432,0,0,0-1.123-1.183,2.031,2.031,0,0,0-2.808,1.1,4.788,4.788,0,0,0-.015,3.358,1.961,1.961,0,0,0,1.784,1.415,2.133,2.133,0,0,0,2.232-1.17c.047-.087.1-.172.16-.281" transform="translate(-75.092 -120.186)" fill="#fff"/><path d="M201.017,139.018l2.192,1.095a15.551,15.551,0,0,1-1.037,1.245,5.251,5.251,0,0,1-7.651-.423,5.83,5.83,0,0,1-.99-4.12,5.048,5.048,0,0,1,1.917-3.738c1.843-1.484,5.847-1.433,7.419,1.124.07.114.138.228.23.381l-2.255,1.194-.192-.308a2.074,2.074,0,0,0-2.166-1.039,1.93,1.93,0,0,0-1.714,1.533,5.044,5.044,0,0,0,.024,2.949,2.016,2.016,0,0,0,1.783,1.558,2.144,2.144,0,0,0,2.31-1.2c.036-.069.072-.137.13-.246" transform="translate(-176.104 -120.223)" fill="#fff"/></g></g></g></svg>