<svg xmlns="http://www.w3.org/2000/svg" width="78" height="77" viewBox="0 0 78 77"><g transform="translate(-3642 -685.5)"><g transform="translate(1862 91)"><rect width="78" height="77" rx="10" transform="translate(1780 594.5)" fill="#fff"/><g transform="translate(1792.001 605.464)"><path d="M61.221,287.054a73.555,73.555,0,0,0,3.86,8.609,2.335,2.335,0,0,0,2.235.929,9.359,9.359,0,0,0,1.894-.658,9.61,9.61,0,0,0,1.725-1.023,2.343,2.343,0,0,0,.777-2.249c-.1-.477-1.453-3.636-3.333-8.415s-3.032-8.015-3.28-8.435a2.346,2.346,0,0,0-2.1-1.121,9.676,9.676,0,0,0-1.96.424,9.362,9.362,0,0,0-1.839.805,2.336,2.336,0,0,0-1.007,2.2,74.481,74.481,0,0,0,3.028,8.933Z" transform="translate(-52.105 -245.992)"/><path d="M337.2,278.12a2.336,2.336,0,0,0-1.007-2.2,9.365,9.365,0,0,0-1.836-.806,9.678,9.678,0,0,0-1.961-.424,2.346,2.346,0,0,0-2.1,1.121c-.248.417-1.408,3.652-3.28,8.435s-3.229,7.938-3.333,8.417a2.345,2.345,0,0,0,.777,2.25,9.61,9.61,0,0,0,1.725,1.022,9.359,9.359,0,0,0,1.894.658,2.335,2.335,0,0,0,2.235-.929,75.512,75.512,0,0,0,3.86-8.609A70.61,70.61,0,0,0,337.2,278.12Z" transform="translate(-289.868 -245.992)"/><path d="M52.376,31.677V28.49a1.982,1.982,0,0,0,1.043-1.748A26.71,26.71,0,0,0,0,26.742a1.982,1.982,0,0,0,1.043,1.745v3.19A2.5,2.5,0,0,0,.1,34.4,101.736,101.736,0,0,0,7.041,52.077a2.5,2.5,0,1,0,4.47-2.259,96.675,96.675,0,0,1-6.594-16.8,2.5,2.5,0,0,0-1.991-1.774V28.49a1.982,1.982,0,0,0,1.038-1.748,22.745,22.745,0,1,1,45.491,0A1.982,1.982,0,0,0,50.5,28.488v2.752a2.5,2.5,0,0,0-1.991,1.774,96.677,96.677,0,0,1-6.594,16.8,2.5,2.5,0,0,0,4.471,2.259A101.814,101.814,0,0,0,53.321,34.4a2.5,2.5,0,0,0-.944-2.718Z" transform="translate(0 0)"/></g></g></g></svg>