<svg id="Group_35790" data-name="Group 35790" xmlns="http://www.w3.org/2000/svg" width="44.852" height="44.852" viewBox="0 0 44.852 44.852">
  <path id="Path_1466" data-name="Path 1466" d="M-1785.83,121.223A22.451,22.451,0,0,1-1808.255,98.8a22.451,22.451,0,0,1,22.425-22.426A22.451,22.451,0,0,1-1763.4,98.8,22.451,22.451,0,0,1-1785.83,121.223Z" transform="translate(1808.255 -76.371)" fill="#fff"/>
  <g id="Group_35750" data-name="Group 35750" transform="translate(8.884 12.107)">
    <g id="Group_35749" data-name="Group 35749">
      <g id="Group_35748" data-name="Group 35748">
        <path id="Path_1467" data-name="Path 1467" d="M-1714.67,174.374a22.254,22.254,0,0,0-5.587-1.726,14.285,14.285,0,0,0-.715,1.469,20.991,20.991,0,0,0-6.192,0,15.894,15.894,0,0,0-.734-1.469,22.074,22.074,0,0,0-5.592,1.734,22.836,22.836,0,0,0-4.005,15.442,22.466,22.466,0,0,0,6.855,3.46,16.872,16.872,0,0,0,1.469-2.382,14.52,14.52,0,0,1-2.312-1.1q.289-.218.558-.438a16.034,16.034,0,0,0,13.711,0c.184.152.375.3.565.441a14.486,14.486,0,0,1-2.316,1.109,16.633,16.633,0,0,0,1.469,2.377,22.339,22.339,0,0,0,6.855-3.459A22.807,22.807,0,0,0-1714.67,174.374Zm-13.9,12.345a2.6,2.6,0,0,1-2.434-2.727,2.593,2.593,0,0,1,2.434-2.737,2.578,2.578,0,0,1,2.436,2.73A2.6,2.6,0,0,1-1728.57,186.719Zm9,0a2.6,2.6,0,0,1-2.434-2.727,2.593,2.593,0,0,1,2.434-2.737,2.575,2.575,0,0,1,2.433,2.73A2.6,2.6,0,0,1-1719.572,186.719Z" transform="translate(1737.611 -172.648)"/>
      </g>
    </g>
  </g>
</svg>
